{
    "asset" : {
        "generator" : "Khronos glTF Blender I/O v1.7.33",
        "version" : "2.0"
    },
    "scene" : 0,
    "scenes" : [
        {
            "name" : "Scene",
            "nodes" : [
                0,
                1,
                2,
                3,
                4
            ]
        }
    ],
    "nodes" : [
        {
            "mesh" : 0,
            "name" : "obj",
            "scale" : [
                2,
                2.000000476837158,
                2.000000476837158
            ]
        },
        {
            "mesh" : 1,
            "name" : "obj.001",
            "scale" : [
                2,
                2.000000476837158,
                2.000000476837158
            ]
        },
        {
            "mesh" : 2,
            "name" : "obj.003",
            "scale" : [
                2,
                2.000000476837158,
                2.000000476837158
            ]
        },
        {
            "mesh" : 3,
            "name" : "obj.004",
            "scale" : [
                2,
                2.000000476837158,
                2.000000476837158
            ]
        },
        {
            "mesh" : 4,
            "name" : "obj.005",
            "scale" : [
                2,
                2.000000476837158,
                2.000000476837158
            ]
        }
    ],
    "materials" : [
        {
            "doubleSided" : true,
            "emissiveFactor" : [
                1,
                1,
                1
            ],
            "emissiveTexture" : {
                "index" : 0
            },
            "name" : "tomatoMat",
            "pbrMetallicRoughness" : {
                "baseColorTexture" : {
                    "index" : 1
                },
                "metallicFactor" : 0
            }
        }
    ],
    "meshes" : [
        {
            "name" : "defaultMaterial",
            "primitives" : [
                {
                    "attributes" : {
                        "POSITION" : 0,
                        "NORMAL" : 1,
                        "TEXCOORD_0" : 2
                    },
                    "indices" : 3,
                    "material" : 0
                }
            ]
        },
        {
            "name" : "defaultMaterial.001",
            "primitives" : [
                {
                    "attributes" : {
                        "POSITION" : 4,
                        "NORMAL" : 5,
                        "TEXCOORD_0" : 6
                    },
                    "indices" : 7,
                    "material" : 0
                }
            ]
        },
        {
            "name" : "defaultMaterial.003",
            "primitives" : [
                {
                    "attributes" : {
                        "POSITION" : 8,
                        "NORMAL" : 9,
                        "TEXCOORD_0" : 10
                    },
                    "indices" : 11,
                    "material" : 0
                }
            ]
        },
        {
            "name" : "defaultMaterial.004",
            "primitives" : [
                {
                    "attributes" : {
                        "POSITION" : 12,
                        "NORMAL" : 13,
                        "TEXCOORD_0" : 14
                    },
                    "indices" : 15,
                    "material" : 0
                }
            ]
        },
        {
            "name" : "defaultMaterial.006",
            "primitives" : [
                {
                    "attributes" : {
                        "POSITION" : 16,
                        "NORMAL" : 17,
                        "TEXCOORD_0" : 18
                    },
                    "indices" : 19,
                    "material" : 0
                }
            ]
        }
    ],
    "textures" : [
        {
            "sampler" : 0,
            "source" : 0
        },
        {
            "sampler" : 0,
            "source" : 0
        }
    ],
    "images" : [
        {
            "mimeType" : "image/jpeg",
            "name" : "cbkts_baseColor",
            "uri" : "cbkts_baseColor.jpg"
        }
    ],
    "accessors" : [
        {
            "bufferView" : 0,
            "componentType" : 5126,
            "count" : 242,
            "max" : [
                0.5605069994926453,
                0.22311371564865112,
                0.519989013671875
            ],
            "min" : [
                0.03444389998912811,
                0.10026770830154419,
                -0.0070763700641691685
            ],
            "type" : "VEC3"
        },
        {
            "bufferView" : 1,
            "componentType" : 5126,
            "count" : 242,
            "type" : "VEC3"
        },
        {
            "bufferView" : 2,
            "componentType" : 5126,
            "count" : 242,
            "type" : "VEC2"
        },
        {
            "bufferView" : 3,
            "componentType" : 5123,
            "count" : 288,
            "type" : "SCALAR"
        },
        {
            "bufferView" : 4,
            "componentType" : 5126,
            "count" : 207,
            "max" : [
                0.0013242500135675073,
                0.699481725692749,
                0.6559699773788452
            ],
            "min" : [
                -0.5499259829521179,
                0.09718772768974304,
                0.10471999645233154
            ],
            "type" : "VEC3"
        },
        {
            "bufferView" : 5,
            "componentType" : 5126,
            "count" : 207,
            "type" : "VEC3"
        },
        {
            "bufferView" : 6,
            "componentType" : 5126,
            "count" : 207,
            "type" : "VEC2"
        },
        {
            "bufferView" : 7,
            "componentType" : 5123,
            "count" : 666,
            "type" : "SCALAR"
        },
        {
            "bufferView" : 8,
            "componentType" : 5126,
            "count" : 372,
            "max" : [
                0.6724910140037537,
                0.209267720580101,
                0.13131600618362427
            ],
            "min" : [
                -0.8730400204658508,
                0.10317672789096832,
                -0.999921977519989
            ],
            "type" : "VEC3"
        },
        {
            "bufferView" : 9,
            "componentType" : 5126,
            "count" : 372,
            "type" : "VEC3"
        },
        {
            "bufferView" : 10,
            "componentType" : 5126,
            "count" : 372,
            "type" : "VEC2"
        },
        {
            "bufferView" : 11,
            "componentType" : 5123,
            "count" : 972,
            "type" : "SCALAR"
        },
        {
            "bufferView" : 12,
            "componentType" : 5126,
            "count" : 595,
            "max" : [
                0.8730400204658508,
                0.09718772768974304,
                1
            ],
            "min" : [
                -0.6166419982910156,
                0.006235718727111816,
                -1
            ],
            "type" : "VEC3"
        },
        {
            "bufferView" : 13,
            "componentType" : 5126,
            "count" : 595,
            "type" : "VEC3"
        },
        {
            "bufferView" : 14,
            "componentType" : 5126,
            "count" : 595,
            "type" : "VEC2"
        },
        {
            "bufferView" : 15,
            "componentType" : 5123,
            "count" : 1536,
            "type" : "SCALAR"
        },
        {
            "bufferView" : 16,
            "componentType" : 5126,
            "count" : 192,
            "max" : [
                0.6964370012283325,
                0.12775471806526184,
                0.4304330050945282
            ],
            "min" : [
                0.17115500569343567,
                0.08614471554756165,
                -0.09484869986772537
            ],
            "type" : "VEC3"
        },
        {
            "bufferView" : 17,
            "componentType" : 5126,
            "count" : 192,
            "type" : "VEC3"
        },
        {
            "bufferView" : 18,
            "componentType" : 5126,
            "count" : 192,
            "type" : "VEC2"
        },
        {
            "bufferView" : 19,
            "componentType" : 5123,
            "count" : 288,
            "type" : "SCALAR"
        }
    ],
    "bufferViews" : [
        {
            "buffer" : 0,
            "byteLength" : 2904,
            "byteOffset" : 0
        },
        {
            "buffer" : 0,
            "byteLength" : 2904,
            "byteOffset" : 2904
        },
        {
            "buffer" : 0,
            "byteLength" : 1936,
            "byteOffset" : 5808
        },
        {
            "buffer" : 0,
            "byteLength" : 576,
            "byteOffset" : 7744
        },
        {
            "buffer" : 0,
            "byteLength" : 2484,
            "byteOffset" : 8320
        },
        {
            "buffer" : 0,
            "byteLength" : 2484,
            "byteOffset" : 10804
        },
        {
            "buffer" : 0,
            "byteLength" : 1656,
            "byteOffset" : 13288
        },
        {
            "buffer" : 0,
            "byteLength" : 1332,
            "byteOffset" : 14944
        },
        {
            "buffer" : 0,
            "byteLength" : 4464,
            "byteOffset" : 16276
        },
        {
            "buffer" : 0,
            "byteLength" : 4464,
            "byteOffset" : 20740
        },
        {
            "buffer" : 0,
            "byteLength" : 2976,
            "byteOffset" : 25204
        },
        {
            "buffer" : 0,
            "byteLength" : 1944,
            "byteOffset" : 28180
        },
        {
            "buffer" : 0,
            "byteLength" : 7140,
            "byteOffset" : 30124
        },
        {
            "buffer" : 0,
            "byteLength" : 7140,
            "byteOffset" : 37264
        },
        {
            "buffer" : 0,
            "byteLength" : 4760,
            "byteOffset" : 44404
        },
        {
            "buffer" : 0,
            "byteLength" : 3072,
            "byteOffset" : 49164
        },
        {
            "buffer" : 0,
            "byteLength" : 2304,
            "byteOffset" : 52236
        },
        {
            "buffer" : 0,
            "byteLength" : 2304,
            "byteOffset" : 54540
        },
        {
            "buffer" : 0,
            "byteLength" : 1536,
            "byteOffset" : 56844
        },
        {
            "buffer" : 0,
            "byteLength" : 576,
            "byteOffset" : 58380
        }
    ],
    "samplers" : [
        {
            "magFilter" : 9729,
            "minFilter" : 9987
        }
    ],
    "buffers" : [
        {
            "byteLength" : 58956,
            "uri" : "scene.bin"
        }
    ]
}
