<?xml version="1.0" standalone="no"?><!DOCTYPE svg PUBLIC "-//W3C//DTD SVG 1.1//EN" "http://www.w3.org/Graphics/SVG/1.1/DTD/svg11.dtd"><svg t="1650639313979" class="icon" viewBox="0 0 1270 1024" version="1.1" xmlns="http://www.w3.org/2000/svg" p-id="4228" width="79.375" height="64" xmlns:xlink="http://www.w3.org/1999/xlink"><defs><style type="text/css"></style></defs><path d="M873.058462 242.540308H397.095385a47.596308 47.596308 0 0 1-43.904-66.038154l58.210461-138.712616A47.616 47.616 0 0 1 455.315692 8.595692h359.522462a47.606154 47.606154 0 0 1 43.913846 29.193846l58.200615 138.712616a47.616 47.616 0 0 1-43.904 66.038154z" fill="#F59D00" p-id="4229"></path><path d="M916.952615 176.502154L858.742154 37.789538A47.616 47.616 0 0 0 814.838154 8.595692H635.076923v233.944616h237.981539a47.606154 47.606154 0 0 0 43.894153-66.038154z" fill="#E87E04" p-id="4230"></path><path d="M274.688 242.540308H139.844923a47.606154 47.606154 0 0 1-47.606154-47.616V86.124308a47.606154 47.606154 0 0 1 47.606154-47.606154h134.833231a47.606154 47.606154 0 0 1 47.606154 47.616v108.790154a47.606154 47.606154 0 0 1-47.596308 47.606154z" fill="#808285" p-id="4231"></path><path d="M1130.308923 1020.317538H139.844923C65.447385 1020.317538 4.923077 959.803077 4.923077 885.395692V282.249846c0-74.397538 60.524308-134.921846 134.921846-134.921846h990.464c74.397538 0 134.921846 60.524308 134.921846 134.921846v603.165539c0 74.387692-60.524308 134.912-134.921846 134.912z" fill="#F2C500" p-id="4232"></path><path d="M1130.308923 147.318154H635.076923v873.009231h495.232c74.397538 0 134.921846-60.534154 134.921846-134.921847v-603.175384c0-74.387692-60.524308-134.912-134.921846-134.912z" fill="#F59D00" p-id="4233"></path><path d="M635.076923 919.561846c-185.137231 0-335.744-150.616615-335.744-335.744 0-185.127385 150.616615-335.734154 335.744-335.734154 185.127385 0 335.744 150.606769 335.744 335.734154S820.204308 919.561846 635.076923 919.561846z" fill="#F59D00" p-id="4234"></path><path d="M635.076923 248.073846v671.488c185.127385 0 335.744-150.616615 335.744-335.744 0-185.127385-150.616615-335.744-335.744-335.744z" fill="#E87E04" p-id="4235"></path><path d="M635.076923 746.978462c-89.974154 0-163.160615-73.186462-163.160615-163.15077 0-89.974154 73.196308-163.170462 163.160615-163.170461s163.160615 73.196308 163.160615 163.160615c0 89.974154-73.186462 163.160615-163.160615 163.160616z" fill="#808285" p-id="4236"></path><path d="M635.076923 420.657231v326.321231c89.974154 0 163.160615-73.196308 163.160615-163.160616S725.051077 420.657231 635.076923 420.657231z" fill="#6D6E71" p-id="4237"></path></svg>