<?xml version="1.0" standalone="no"?><!DOCTYPE svg PUBLIC "-//W3C//DTD SVG 1.1//EN" "http://www.w3.org/Graphics/SVG/1.1/DTD/svg11.dtd"><svg t="1644543329558" class="icon" viewBox="0 0 1024 1024" version="1.1" xmlns="http://www.w3.org/2000/svg" p-id="1866" width="128" height="128" xmlns:xlink="http://www.w3.org/1999/xlink"><defs><style type="text/css"></style></defs><path d="M560.54518518 305.68296297l0 415.06133333c0 0.48545185 0 1.09226667 0.12136298 1.57771852 0.84954075 5.33997037 5.82542222 8.8594963 11.16539259 8.00995555l300.98014814-48.78791112c4.73315555-0.72817778 8.13131852-4.85451852 8.13131852-9.58767407L880.94340741 354.47087408c0-4.73315555-3.39816297-8.8594963-8.13131852-9.58767408l-300.98014814-48.78791111c-0.48545185-0.12136297-1.09226667-0.12136297-1.57771853-0.12136297-5.33997037 0-9.70903703 4.36906667-9.70903704 9.70903705z m237.87140741 110.68302221l0 193.57392593-155.34459259 25.12213334 0-243.93955556 155.34459259 25.24349629z m-343.0930963 3.03407407c4.73315555-0.72817778 8.13131852-4.85451852 8.13131853-9.58767407L463.45481482 92.32687408c0-4.73315555-3.39816297-8.8594963-8.13131853-9.58767408l-300.98014816-48.78791111c-0.48545185-0.12136297-1.09226667-0.12136297-1.5777185-0.12136297-5.33997037 0-9.70903703 4.36906667-9.70903704 9.70903705l0 415.06133333c0 0.48545185 0 1.09226667 0.12136296 1.57771852 0.84954075 5.33997037 5.82542222 8.8594963 11.1653926 8.00995554l300.98014814-48.78791111zM225.58340741 129.09985187l155.34459259 25.12213331 0 193.57392593-155.34459259 25.12213335L225.58340741 129.09985187z m-71.24005928 860.94885924l300.98014816-48.78791111c4.73315555-0.72817778 8.13131852-4.85451852 8.13131853-9.58767408L463.45481482 614.18761482c0-4.73315555-3.39816297-8.8594963-8.13131853-9.58767407l-300.98014814-48.78791111c-0.48545185-0.12136297-1.09226667-0.12136297-1.57771852-0.12136297-5.33997037 0-9.70903703 4.36906667-9.70903704 9.70903703l0 415.06133333c0 0.48545185 0 1.09226667 0.12136296 1.57771852 0.84954075 5.21860741 5.82542222 8.8594963 11.16539258 8.00995556zM225.58340741 650.9605926l155.34459259 25.12213332 0 193.57392593-155.34459259 25.12213336L225.58340741 650.9605926z" fill="#e16531" p-id="1867"></path></svg>