{
    "asset" : {
        "generator" : "Khronos glTF Blender I/O v1.7.33",
        "version" : "2.0"
    },
    "scene" : 0,
    "scenes" : [
        {
            "name" : "Scene",
            "nodes" : [
                0
            ]
        }
    ],
    "nodes" : [
        {
            "mesh" : 0,
            "name" : "building",
            "rotation" : [
                -0.7071068286895752,
                0,
                0,
                0.7071067094802856
            ]
        }
    ],
    "materials" : [
        {
            "doubleSided" : true,
            "name" : "buildingMat",
            "pbrMetallicRoughness" : {
                "metallicFactor" : 0,
                "roughnessFactor" : 0.6000000238418579
            }
        }
    ],
    "meshes" : [
        {
            "name" : "Object_2",
            "primitives" : [
                {
                    "attributes" : {
                        "POSITION" : 0,
                        "NORMAL" : 1,
                        "TEXCOORD_0" : 2
                    },
                    "indices" : 3,
                    "material" : 0
                }
            ]
        }
    ],
    "accessors" : [
        {
            "bufferView" : 0,
            "componentType" : 5126,
            "count" : 38229,
            "max" : [
                20.522499084472656,
                10.102899551391602,
                26.25
            ],
            "min" : [
                -17.335599899291992,
                -10.101099967956543,
                -4.513989788829942e-28
            ],
            "type" : "VEC3"
        },
        {
            "bufferView" : 1,
            "componentType" : 5126,
            "count" : 38229,
            "type" : "VEC3"
        },
        {
            "bufferView" : 2,
            "componentType" : 5126,
            "count" : 38229,
            "type" : "VEC2"
        },
        {
            "bufferView" : 3,
            "componentType" : 5123,
            "count" : 53436,
            "type" : "SCALAR"
        }
    ],
    "bufferViews" : [
        {
            "buffer" : 0,
            "byteLength" : 458748,
            "byteOffset" : 0
        },
        {
            "buffer" : 0,
            "byteLength" : 458748,
            "byteOffset" : 458748
        },
        {
            "buffer" : 0,
            "byteLength" : 305832,
            "byteOffset" : 917496
        },
        {
            "buffer" : 0,
            "byteLength" : 106872,
            "byteOffset" : 1223328
        }
    ],
    "buffers" : [
        {
            "byteLength" : 1330200,
            "uri" : "data:application/octet-stream;base64,"
        }
    ]
}
