<?xml version="1.0" standalone="no"?><!DOCTYPE svg PUBLIC "-//W3C//DTD SVG 1.1//EN" "http://www.w3.org/Graphics/SVG/1.1/DTD/svg11.dtd"><svg t="1652091147218" class="icon" viewBox="0 0 1024 1024" version="1.1" xmlns="http://www.w3.org/2000/svg" p-id="5965" width="100" height="100" xmlns:xlink="http://www.w3.org/1999/xlink"><defs><style type="text/css"></style></defs><path d="M823.6 419.5c-2.6 0-5.1-1-7.1-2.9L532.9 133c-11.5-11.5-30.3-11.5-41.9 0L207.5 416.5c-3.9 3.9-10.2 3.9-14.1 0-3.9-3.9-3.9-10.2 0-14.1L477 118.9c19.3-19.3 50.8-19.3 70.1 0l283.6 283.6c3.9 3.9 3.9 10.2 0 14.1-2 1.9-4.5 2.9-7.1 2.9z" fill="#EB866B" p-id="5966"></path><path d="M154.6 260.3h714.7c17.2 0 31.1 13.9 31.1 31.1v509c0 17.2-13.9 31.1-31.1 31.1H154.6c-17.2 0-31.1-13.9-31.1-31.1v-509c0.1-17.2 14-31.1 31.1-31.1z" fill="#FBD1AA" p-id="5967"></path><path d="M900.4 291.4v509c0 17.2-13.9 31.1-31.1 31.1h-63c17.2 0 31.1-13.9 31.1-31.1v-509c0-17.2-13.9-31.1-31.1-31.1h63c17.2 0 31.1 13.9 31.1 31.1z" fill="#F7BD81" p-id="5968"></path><path d="M185.7 322.5h652.6v446.9H185.7V322.5z" fill="#414649" p-id="5969"></path><path d="M185.7 322.5h652.6v446.9H185.7V322.5z" fill="#BD9EE2" p-id="5970"></path><path d="M279.6 703.9h97.2c16.1 0 29.1 13 29.1 29.1v36.4H250.5V733c0-16.1 13-29.1 29.1-29.1z" fill="#50E6CC" p-id="5971"></path><path d="M775.3 322.5h63v446.9h-63z" fill="#978CDB" p-id="5972"></path><path d="M405.9 732.9v36.4h-50.1v-36.4c0-16-13-29.1-29.1-29.1h50.1c16.1 0.1 29.1 13.1 29.1 29.1z" fill="#45DABD" p-id="5973"></path><path d="M900.6 831.5H123.4c-17.3 0-31.4-14.2-31.4-31.4 0-17.3 14.2-31.4 31.4-31.4h777.1c17.3 0 31.4 14.2 31.4 31.4 0.1 17.2-14.1 31.4-31.3 31.4z" fill="#EB866B" p-id="5974"></path><path d="M378 636.5h-31.5v-104H325l1.9-25.8H378v129.8z" fill="#8ADCFF" p-id="5975"></path><path d="M476.3 610.8H539v24.1h-90.5v-73.1l62.1-6.3-0.7-24.7h-59.4v-24.1H539l1.9 70.8-64.5 6.5v26.8h-0.1z" fill="#FDF17F" p-id="5976"></path><path d="M699 636.5h-89.6v-26h59.9v-28.4H618v-26h51.4v-23.6h-58.8v-26H699v130z" fill="#FFB8CB" p-id="5977"></path><path d="M502.424676 164.516631a27.9 27.9 0 1 0 19.06642-52.441507 27.9 27.9 0 1 0-19.06642 52.441507Z" fill="#889CA9" p-id="5978"></path><path d="M932 800c0 8.7-3.5 16.5-9.2 22.2s-13.6 9.2-22.2 9.2H837c8.6 0 16.5-3.5 22.2-9.2s9.2-13.6 9.2-22.2c0-17.3-14.1-31.4-31.4-31.4h63.5c17.3 0 31.5 14.2 31.5 31.4z" fill="#DA6749" p-id="5979"></path><path d="M540 138.3c0 15.4-12.5 27.9-28 27.9-3.7 0-7.3-0.7-10.5-2.1 10.2-4.2 17.4-14.2 17.4-25.9s-7.2-21.7-17.4-25.9c3.2-1.3 6.8-2.1 10.5-2.1 15.4 0.1 28 12.6 28 28.1z" fill="#73859E" p-id="5980"></path></svg>